<mxfile host="app.diagrams.net" modified="2023-11-15T19:27:02.075Z" agent="Mozilla/5.0 (Windows NT 10.0; Win64; x64) AppleWebKit/537.36 (KHTML, like Gecko) Chrome/119.0.0.0 Safari/537.36" etag="j6t7W7bxZB71qZrihYy_" version="22.1.2" type="device">
  <diagram name="Page-1" id="AE-GTfHWrZCrNppBWbrJ">
    <mxGraphModel dx="2083" dy="1193" grid="0" gridSize="10" guides="1" tooltips="1" connect="1" arrows="1" fold="1" page="0" pageScale="1" pageWidth="850" pageHeight="1100" math="0" shadow="0">
      <root>
        <mxCell id="0" />
        <mxCell id="1" parent="0" />
        <mxCell id="VPUkSAtc0aQ0JTQJvAAa-7" style="edgeStyle=none;curved=1;rounded=0;orthogonalLoop=1;jettySize=auto;html=1;exitX=0.25;exitY=0;exitDx=0;exitDy=0;entryX=1;entryY=1;entryDx=0;entryDy=0;fontSize=12;startSize=8;endSize=8;" edge="1" parent="1" source="VPUkSAtc0aQ0JTQJvAAa-1" target="VPUkSAtc0aQ0JTQJvAAa-3">
          <mxGeometry relative="1" as="geometry" />
        </mxCell>
        <mxCell id="VPUkSAtc0aQ0JTQJvAAa-17" style="edgeStyle=none;curved=1;rounded=0;orthogonalLoop=1;jettySize=auto;html=1;exitX=0.75;exitY=0;exitDx=0;exitDy=0;fontSize=12;startSize=8;endSize=8;entryX=0;entryY=0.5;entryDx=0;entryDy=0;" edge="1" parent="1" source="VPUkSAtc0aQ0JTQJvAAa-1" target="VPUkSAtc0aQ0JTQJvAAa-13">
          <mxGeometry relative="1" as="geometry">
            <mxPoint x="-126.5999755859375" y="10.600006103515625" as="targetPoint" />
          </mxGeometry>
        </mxCell>
        <mxCell id="VPUkSAtc0aQ0JTQJvAAa-19" style="edgeStyle=none;curved=1;rounded=0;orthogonalLoop=1;jettySize=auto;html=1;exitX=0.25;exitY=0;exitDx=0;exitDy=0;fontSize=12;startSize=8;endSize=8;" edge="1" parent="1" source="VPUkSAtc0aQ0JTQJvAAa-1" target="VPUkSAtc0aQ0JTQJvAAa-8">
          <mxGeometry relative="1" as="geometry" />
        </mxCell>
        <mxCell id="VPUkSAtc0aQ0JTQJvAAa-20" style="edgeStyle=none;curved=1;rounded=0;orthogonalLoop=1;jettySize=auto;html=1;exitX=0.25;exitY=0;exitDx=0;exitDy=0;entryX=1;entryY=0.5;entryDx=0;entryDy=0;fontSize=12;startSize=8;endSize=8;" edge="1" parent="1" source="VPUkSAtc0aQ0JTQJvAAa-1" target="VPUkSAtc0aQ0JTQJvAAa-14">
          <mxGeometry relative="1" as="geometry" />
        </mxCell>
        <mxCell id="VPUkSAtc0aQ0JTQJvAAa-21" style="edgeStyle=none;curved=1;rounded=0;orthogonalLoop=1;jettySize=auto;html=1;exitX=0.25;exitY=0;exitDx=0;exitDy=0;entryX=1;entryY=0.5;entryDx=0;entryDy=0;fontSize=12;startSize=8;endSize=8;" edge="1" parent="1" source="VPUkSAtc0aQ0JTQJvAAa-1" target="VPUkSAtc0aQ0JTQJvAAa-15">
          <mxGeometry relative="1" as="geometry" />
        </mxCell>
        <mxCell id="VPUkSAtc0aQ0JTQJvAAa-22" style="edgeStyle=none;curved=1;rounded=0;orthogonalLoop=1;jettySize=auto;html=1;exitX=0.5;exitY=0;exitDx=0;exitDy=0;fontSize=12;startSize=8;endSize=8;" edge="1" parent="1" source="VPUkSAtc0aQ0JTQJvAAa-1">
          <mxGeometry relative="1" as="geometry">
            <mxPoint x="-117.79998779296875" y="-115.80000305175781" as="targetPoint" />
          </mxGeometry>
        </mxCell>
        <mxCell id="VPUkSAtc0aQ0JTQJvAAa-23" style="edgeStyle=none;curved=1;rounded=0;orthogonalLoop=1;jettySize=auto;html=1;exitX=0.5;exitY=0;exitDx=0;exitDy=0;entryX=0;entryY=1;entryDx=0;entryDy=0;fontSize=12;startSize=8;endSize=8;" edge="1" parent="1" source="VPUkSAtc0aQ0JTQJvAAa-1" target="VPUkSAtc0aQ0JTQJvAAa-12">
          <mxGeometry relative="1" as="geometry" />
        </mxCell>
        <mxCell id="VPUkSAtc0aQ0JTQJvAAa-24" style="edgeStyle=none;curved=1;rounded=0;orthogonalLoop=1;jettySize=auto;html=1;exitX=0.75;exitY=0;exitDx=0;exitDy=0;entryX=0;entryY=1;entryDx=0;entryDy=0;fontSize=12;startSize=8;endSize=8;" edge="1" parent="1" source="VPUkSAtc0aQ0JTQJvAAa-1" target="VPUkSAtc0aQ0JTQJvAAa-9">
          <mxGeometry relative="1" as="geometry" />
        </mxCell>
        <mxCell id="VPUkSAtc0aQ0JTQJvAAa-1" value="User" style="whiteSpace=wrap;html=1;fontSize=16;" vertex="1" parent="1">
          <mxGeometry x="-182" y="120" width="108" height="54" as="geometry" />
        </mxCell>
        <mxCell id="VPUkSAtc0aQ0JTQJvAAa-3" value="Id" style="ellipse;whiteSpace=wrap;html=1;fontSize=16;" vertex="1" parent="1">
          <mxGeometry x="-378" y="-88" width="64" height="37" as="geometry" />
        </mxCell>
        <mxCell id="VPUkSAtc0aQ0JTQJvAAa-8" value="firstName" style="ellipse;whiteSpace=wrap;html=1;fontSize=16;" vertex="1" parent="1">
          <mxGeometry x="-328" y="-120" width="91" height="36" as="geometry" />
        </mxCell>
        <mxCell id="VPUkSAtc0aQ0JTQJvAAa-9" value="email" style="ellipse;whiteSpace=wrap;html=1;fontSize=16;" vertex="1" parent="1">
          <mxGeometry x="31" y="-18" width="62" height="36" as="geometry" />
        </mxCell>
        <mxCell id="VPUkSAtc0aQ0JTQJvAAa-10" value="lastName" style="ellipse;whiteSpace=wrap;html=1;fontSize=16;" vertex="1" parent="1">
          <mxGeometry x="-254" y="-161" width="79" height="36" as="geometry" />
        </mxCell>
        <mxCell id="VPUkSAtc0aQ0JTQJvAAa-11" value="password" style="ellipse;whiteSpace=wrap;html=1;fontSize=16;" vertex="1" parent="1">
          <mxGeometry x="-158" y="-156" width="98" height="36" as="geometry" />
        </mxCell>
        <mxCell id="VPUkSAtc0aQ0JTQJvAAa-12" value="phone" style="ellipse;whiteSpace=wrap;html=1;fontSize=16;" vertex="1" parent="1">
          <mxGeometry x="-57" y="-139" width="62" height="36" as="geometry" />
        </mxCell>
        <mxCell id="VPUkSAtc0aQ0JTQJvAAa-13" value="enable" style="ellipse;whiteSpace=wrap;html=1;fontSize=16;" vertex="1" parent="1">
          <mxGeometry x="-19" y="-87" width="62" height="36" as="geometry" />
        </mxCell>
        <mxCell id="VPUkSAtc0aQ0JTQJvAAa-14" value="username" style="ellipse;whiteSpace=wrap;html=1;fontSize=16;" vertex="1" parent="1">
          <mxGeometry x="-391" y="-37" width="83" height="36" as="geometry" />
        </mxCell>
        <mxCell id="VPUkSAtc0aQ0JTQJvAAa-15" value="about" style="ellipse;whiteSpace=wrap;html=1;fontSize=16;" vertex="1" parent="1">
          <mxGeometry x="-374" y="13" width="62" height="36" as="geometry" />
        </mxCell>
        <mxCell id="VPUkSAtc0aQ0JTQJvAAa-16" style="edgeStyle=none;curved=1;rounded=0;orthogonalLoop=1;jettySize=auto;html=1;exitX=1;exitY=1;exitDx=0;exitDy=0;fontSize=12;startSize=8;endSize=8;" edge="1" parent="1" source="VPUkSAtc0aQ0JTQJvAAa-10" target="VPUkSAtc0aQ0JTQJvAAa-10">
          <mxGeometry relative="1" as="geometry" />
        </mxCell>
        <mxCell id="VPUkSAtc0aQ0JTQJvAAa-18" style="edgeStyle=none;curved=1;rounded=0;orthogonalLoop=1;jettySize=auto;html=1;exitX=0.5;exitY=0;exitDx=0;exitDy=0;entryX=0.6;entryY=0.967;entryDx=0;entryDy=0;entryPerimeter=0;fontSize=12;startSize=8;endSize=8;" edge="1" parent="1" source="VPUkSAtc0aQ0JTQJvAAa-1" target="VPUkSAtc0aQ0JTQJvAAa-10">
          <mxGeometry relative="1" as="geometry" />
        </mxCell>
        <mxCell id="VPUkSAtc0aQ0JTQJvAAa-28" style="edgeStyle=none;curved=1;rounded=0;orthogonalLoop=1;jettySize=auto;html=1;exitX=0.75;exitY=0;exitDx=0;exitDy=0;fontSize=12;startSize=8;endSize=8;" edge="1" parent="1" source="VPUkSAtc0aQ0JTQJvAAa-25" target="VPUkSAtc0aQ0JTQJvAAa-27">
          <mxGeometry relative="1" as="geometry" />
        </mxCell>
        <mxCell id="VPUkSAtc0aQ0JTQJvAAa-29" style="edgeStyle=none;curved=1;rounded=0;orthogonalLoop=1;jettySize=auto;html=1;exitX=0.25;exitY=0;exitDx=0;exitDy=0;entryX=0.5;entryY=1;entryDx=0;entryDy=0;fontSize=12;startSize=8;endSize=8;" edge="1" parent="1" source="VPUkSAtc0aQ0JTQJvAAa-25" target="VPUkSAtc0aQ0JTQJvAAa-26">
          <mxGeometry relative="1" as="geometry" />
        </mxCell>
        <mxCell id="VPUkSAtc0aQ0JTQJvAAa-51" style="edgeStyle=none;curved=1;rounded=0;orthogonalLoop=1;jettySize=auto;html=1;exitX=0.5;exitY=1;exitDx=0;exitDy=0;entryX=0.5;entryY=0;entryDx=0;entryDy=0;fontSize=12;startSize=8;endSize=8;" edge="1" parent="1" source="VPUkSAtc0aQ0JTQJvAAa-25" target="VPUkSAtc0aQ0JTQJvAAa-47">
          <mxGeometry relative="1" as="geometry">
            <Array as="points">
              <mxPoint x="416" y="263" />
            </Array>
          </mxGeometry>
        </mxCell>
        <mxCell id="VPUkSAtc0aQ0JTQJvAAa-25" value="Role" style="rounded=0;whiteSpace=wrap;html=1;fontSize=16;" vertex="1" parent="1">
          <mxGeometry x="364" y="126" width="125" height="48" as="geometry" />
        </mxCell>
        <mxCell id="VPUkSAtc0aQ0JTQJvAAa-26" value="roleId" style="ellipse;whiteSpace=wrap;html=1;fontSize=16;" vertex="1" parent="1">
          <mxGeometry x="283" y="-48" width="81" height="26" as="geometry" />
        </mxCell>
        <mxCell id="VPUkSAtc0aQ0JTQJvAAa-27" value="role" style="ellipse;whiteSpace=wrap;html=1;fontSize=16;" vertex="1" parent="1">
          <mxGeometry x="495" y="-43" width="76" height="29" as="geometry" />
        </mxCell>
        <mxCell id="VPUkSAtc0aQ0JTQJvAAa-41" style="edgeStyle=none;curved=1;rounded=0;orthogonalLoop=1;jettySize=auto;html=1;exitX=0.5;exitY=0;exitDx=0;exitDy=0;entryX=0.5;entryY=1;entryDx=0;entryDy=0;fontSize=12;startSize=8;endSize=8;" edge="1" parent="1" source="VPUkSAtc0aQ0JTQJvAAa-34" target="VPUkSAtc0aQ0JTQJvAAa-35">
          <mxGeometry relative="1" as="geometry" />
        </mxCell>
        <mxCell id="VPUkSAtc0aQ0JTQJvAAa-42" style="edgeStyle=none;curved=1;rounded=0;orthogonalLoop=1;jettySize=auto;html=1;exitX=0.5;exitY=0;exitDx=0;exitDy=0;entryX=0.5;entryY=1;entryDx=0;entryDy=0;fontSize=12;startSize=8;endSize=8;" edge="1" parent="1" source="VPUkSAtc0aQ0JTQJvAAa-34" target="VPUkSAtc0aQ0JTQJvAAa-38">
          <mxGeometry relative="1" as="geometry" />
        </mxCell>
        <mxCell id="VPUkSAtc0aQ0JTQJvAAa-43" style="edgeStyle=none;curved=1;rounded=0;orthogonalLoop=1;jettySize=auto;html=1;exitX=0.5;exitY=0;exitDx=0;exitDy=0;fontSize=12;startSize=8;endSize=8;" edge="1" parent="1" source="VPUkSAtc0aQ0JTQJvAAa-34">
          <mxGeometry relative="1" as="geometry">
            <mxPoint x="29.266682942708258" y="180.5333251953125" as="targetPoint" />
          </mxGeometry>
        </mxCell>
        <mxCell id="VPUkSAtc0aQ0JTQJvAAa-34" value="User_Role" style="rounded=0;whiteSpace=wrap;html=1;fontSize=16;" vertex="1" parent="1">
          <mxGeometry x="60" y="224" width="100" height="38" as="geometry" />
        </mxCell>
        <mxCell id="VPUkSAtc0aQ0JTQJvAAa-35" value="roleId" style="ellipse;whiteSpace=wrap;html=1;fontSize=16;" vertex="1" parent="1">
          <mxGeometry x="175" y="160" width="81" height="26" as="geometry" />
        </mxCell>
        <mxCell id="VPUkSAtc0aQ0JTQJvAAa-38" value="userId" style="ellipse;whiteSpace=wrap;html=1;fontSize=16;" vertex="1" parent="1">
          <mxGeometry x="79" y="148" width="81" height="26" as="geometry" />
        </mxCell>
        <mxCell id="VPUkSAtc0aQ0JTQJvAAa-39" value="userRoleId" style="ellipse;whiteSpace=wrap;html=1;fontSize=16;" vertex="1" parent="1">
          <mxGeometry x="-23" y="154" width="95" height="26" as="geometry" />
        </mxCell>
        <mxCell id="VPUkSAtc0aQ0JTQJvAAa-40" style="edgeStyle=none;curved=1;rounded=0;orthogonalLoop=1;jettySize=auto;html=1;exitX=0.5;exitY=1;exitDx=0;exitDy=0;entryX=0.63;entryY=1.226;entryDx=0;entryDy=0;entryPerimeter=0;fontSize=12;startSize=8;endSize=8;" edge="1" parent="1" source="VPUkSAtc0aQ0JTQJvAAa-39" target="VPUkSAtc0aQ0JTQJvAAa-39">
          <mxGeometry relative="1" as="geometry" />
        </mxCell>
        <mxCell id="VPUkSAtc0aQ0JTQJvAAa-49" style="edgeStyle=none;curved=1;rounded=0;orthogonalLoop=1;jettySize=auto;html=1;exitX=1;exitY=0.5;exitDx=0;exitDy=0;entryX=0;entryY=0.5;entryDx=0;entryDy=0;fontSize=12;startSize=8;endSize=8;" edge="1" parent="1" source="VPUkSAtc0aQ0JTQJvAAa-45" target="VPUkSAtc0aQ0JTQJvAAa-34">
          <mxGeometry relative="1" as="geometry" />
        </mxCell>
        <mxCell id="VPUkSAtc0aQ0JTQJvAAa-45" value="has" style="rhombus;whiteSpace=wrap;html=1;fontSize=16;" vertex="1" parent="1">
          <mxGeometry x="-203" y="290" width="80" height="80" as="geometry" />
        </mxCell>
        <mxCell id="VPUkSAtc0aQ0JTQJvAAa-50" style="edgeStyle=none;curved=1;rounded=0;orthogonalLoop=1;jettySize=auto;html=1;exitX=0;exitY=0.5;exitDx=0;exitDy=0;entryX=1;entryY=0.5;entryDx=0;entryDy=0;fontSize=12;startSize=8;endSize=8;" edge="1" parent="1" source="VPUkSAtc0aQ0JTQJvAAa-47" target="VPUkSAtc0aQ0JTQJvAAa-34">
          <mxGeometry relative="1" as="geometry" />
        </mxCell>
        <mxCell id="VPUkSAtc0aQ0JTQJvAAa-47" value="has" style="rhombus;whiteSpace=wrap;html=1;fontSize=16;" vertex="1" parent="1">
          <mxGeometry x="359" y="318" width="80" height="80" as="geometry" />
        </mxCell>
        <mxCell id="VPUkSAtc0aQ0JTQJvAAa-48" value="" style="edgeStyle=none;orthogonalLoop=1;jettySize=auto;html=1;rounded=0;fontSize=12;startSize=8;endSize=8;curved=1;entryX=0.5;entryY=0;entryDx=0;entryDy=0;exitX=0.5;exitY=1;exitDx=0;exitDy=0;" edge="1" parent="1" source="VPUkSAtc0aQ0JTQJvAAa-1" target="VPUkSAtc0aQ0JTQJvAAa-45">
          <mxGeometry width="140" relative="1" as="geometry">
            <mxPoint x="-136" y="208" as="sourcePoint" />
            <mxPoint x="4" y="208" as="targetPoint" />
            <Array as="points" />
          </mxGeometry>
        </mxCell>
        <mxCell id="VPUkSAtc0aQ0JTQJvAAa-52" value="1" style="text;strokeColor=none;fillColor=none;html=1;align=center;verticalAlign=middle;whiteSpace=wrap;rounded=0;fontSize=16;" vertex="1" parent="1">
          <mxGeometry x="439" y="182" width="60" height="30" as="geometry" />
        </mxCell>
        <mxCell id="VPUkSAtc0aQ0JTQJvAAa-53" value="n" style="text;strokeColor=none;fillColor=none;html=1;align=center;verticalAlign=middle;whiteSpace=wrap;rounded=0;fontSize=16;" vertex="1" parent="1">
          <mxGeometry x="151" y="277" width="60" height="30" as="geometry" />
        </mxCell>
        <mxCell id="VPUkSAtc0aQ0JTQJvAAa-55" value="n" style="text;strokeColor=none;fillColor=none;html=1;align=center;verticalAlign=middle;whiteSpace=wrap;rounded=0;fontSize=16;" vertex="1" parent="1">
          <mxGeometry y="272" width="60" height="30" as="geometry" />
        </mxCell>
        <mxCell id="VPUkSAtc0aQ0JTQJvAAa-56" value="1" style="text;strokeColor=none;fillColor=none;html=1;align=center;verticalAlign=middle;whiteSpace=wrap;rounded=0;fontSize=16;" vertex="1" parent="1">
          <mxGeometry x="-127" y="186" width="60" height="30" as="geometry" />
        </mxCell>
      </root>
    </mxGraphModel>
  </diagram>
</mxfile>
